<?xml version="1.0" encoding="UTF-8" standalone="no"?>
<!DOCTYPE svg PUBLIC "-//W3C//DTD SVG 1.1//EN" "http://www.w3.org/Graphics/SVG/1.1/DTD/svg11.dtd">
<svg width="100%" height="100%" viewBox="0 0 86 86" version="1.1" xmlns="http://www.w3.org/2000/svg" xmlns:xlink="http://www.w3.org/1999/xlink" xml:space="preserve" xmlns:serif="http://www.serif.com/" style="fill-rule:evenodd;clip-rule:evenodd;stroke-linejoin:round;stroke-miterlimit:2;">
    <g id="Layer_1">
        <path d="M85.603,1.77C85.603,0.985 84.966,0.348 84.181,0.348L1.722,0.348C0.937,0.349 0.3,0.985 0.3,1.77L0.3,43C0.3,66.556 19.396,85.651 42.951,85.651L84.181,85.651C84.966,85.651 85.603,84.955 85.603,84.17L85.603,1.77Z" style="fill:url(#_Linear1);fill-rule:nonzero;"/>
        <g>
            <path d="M84.181,0.349L1.722,0.349C0.937,0.349 0.3,0.985 0.3,1.77L0.3,14.703L85.603,14.703L85.603,1.77C85.603,0.985 84.966,0.349 84.181,0.349Z" style="fill:url(#_Linear2);fill-rule:nonzero;"/>
        </g>
        <g transform="matrix(0.989406,0,0,0.989406,0.934649,1.51209)">
            <path d="M20.878,67.814C20.878,66.633 21.004,65.598 21.256,64.709C21.508,63.82 21.863,63.083 22.321,62.499C22.779,61.915 23.326,61.477 23.963,61.185C24.6,60.893 25.31,60.747 26.093,60.747C27.765,60.747 29.053,61.321 29.955,62.47C30.858,63.619 31.309,65.4 31.309,67.814C31.309,69.008 31.183,70.05 30.931,70.939C30.678,71.828 30.323,72.568 29.866,73.159C29.408,73.749 28.857,74.191 28.213,74.483C27.57,74.775 26.856,74.921 26.073,74.921C24.388,74.921 23.101,74.314 22.212,73.1C21.322,71.887 20.878,70.125 20.878,67.814ZM51.748,72.779C52.185,72.779 52.587,72.724 52.952,72.614C53.317,72.503 53.629,72.347 53.887,72.146C54.146,71.945 54.349,71.711 54.495,71.445C54.641,71.179 54.714,70.891 54.714,70.579C54.714,70.19 54.631,69.862 54.465,69.596C54.299,69.33 54.07,69.119 53.778,68.963C53.486,68.807 53.134,68.697 52.723,68.632C52.312,68.567 51.867,68.535 51.389,68.535L50.274,68.535L50.274,67.152L53.619,63.161L48.582,63.161L48.582,61.02L56.704,61.02L56.704,62.791L53.201,66.705L53.659,66.705C54.123,66.705 54.574,66.783 55.012,66.938C55.45,67.094 55.838,67.328 56.177,67.639C56.515,67.951 56.787,68.34 56.993,68.807C57.199,69.275 57.301,69.813 57.301,70.423C57.301,71.163 57.145,71.812 56.834,72.37C56.522,72.928 56.11,73.399 55.599,73.782C55.088,74.165 54.501,74.45 53.838,74.638C53.174,74.827 52.491,74.921 51.787,74.921C51.19,74.921 50.593,74.869 49.996,74.765C49.399,74.661 48.821,74.499 48.264,74.278L48.961,72.175C49.08,72.24 49.243,72.305 49.448,72.37C49.654,72.435 49.886,72.5 50.145,72.565C50.404,72.63 50.669,72.682 50.941,72.721C51.213,72.76 51.482,72.779 51.748,72.779ZM70.395,70.073L72.584,70.073L72.584,73.967C72.16,74.265 71.619,74.499 70.962,74.668C70.305,74.836 69.632,74.921 68.942,74.921C68.066,74.921 67.233,74.794 66.443,74.541C65.654,74.288 64.96,73.879 64.363,73.314C63.766,72.75 63.288,72.016 62.93,71.114C62.572,70.212 62.392,69.119 62.392,67.834C62.392,66.497 62.595,65.377 63,64.475C63.404,63.573 63.925,62.847 64.562,62.295C65.199,61.743 65.909,61.347 66.692,61.107C67.475,60.867 68.245,60.747 69.001,60.747C69.798,60.747 70.471,60.812 71.022,60.942C71.573,61.072 72.027,61.221 72.385,61.39L72.385,65.439L70.196,65.439L70.196,63.22C69.784,63.155 69.36,63.122 68.922,63.122C68.404,63.122 67.923,63.216 67.479,63.405C67.034,63.593 66.646,63.882 66.314,64.271C65.982,64.66 65.723,65.15 65.538,65.741C65.352,66.331 65.259,67.029 65.259,67.834C65.259,68.535 65.345,69.174 65.518,69.752C65.69,70.329 65.942,70.826 66.274,71.241C66.606,71.656 67.011,71.978 67.488,72.205C67.966,72.432 68.51,72.545 69.121,72.545C69.559,72.545 69.983,72.506 70.395,72.429L70.395,70.073ZM35.942,65.283C35.942,64.621 36.058,64.011 36.29,63.453C36.523,62.895 36.848,62.418 37.266,62.022C37.684,61.626 38.188,61.315 38.779,61.088C39.369,60.861 40.029,60.747 40.759,60.747C41.502,60.747 42.179,60.857 42.79,61.078C43.4,61.299 43.924,61.626 44.362,62.061C44.8,62.496 45.139,63.035 45.378,63.677C45.616,64.32 45.736,65.056 45.736,65.887C45.736,67.393 45.537,68.69 45.139,69.781C44.741,70.871 44.206,71.78 43.536,72.506C42.866,73.233 42.086,73.791 41.197,74.181C40.308,74.57 39.379,74.817 38.41,74.921L37.853,72.935C38.583,72.844 39.243,72.669 39.834,72.409C40.424,72.15 40.938,71.828 41.376,71.445C41.814,71.062 42.173,70.628 42.451,70.141C42.73,69.654 42.909,69.132 42.989,68.574C42.71,68.846 42.352,69.064 41.914,69.226C41.476,69.388 40.952,69.469 40.341,69.469L40.301,69.469C39.797,69.469 39.286,69.385 38.769,69.216C38.251,69.047 37.783,68.788 37.365,68.437C36.947,68.087 36.606,67.649 36.34,67.123C36.075,66.598 35.942,65.984 35.942,65.283ZM9.741,69.764C9.869,69.509 10.022,69.275 10.198,69.06C10.444,68.762 10.726,68.493 11.044,68.252C11.363,68.012 11.688,67.801 12.02,67.62C11.356,67.243 10.805,66.799 10.367,66.286C9.929,65.773 9.71,65.128 9.71,64.349C9.71,63.843 9.823,63.369 10.049,62.928C10.274,62.486 10.59,62.103 10.994,61.779C11.399,61.454 11.88,61.201 12.438,61.02C12.995,60.838 13.599,60.747 14.249,60.747C14.846,60.747 15.407,60.825 15.931,60.981C16.455,61.136 16.917,61.357 17.315,61.643C17.713,61.928 18.025,62.275 18.25,62.684C18.476,63.093 18.589,63.544 18.589,64.037C18.589,64.803 18.386,65.472 17.982,66.043C17.577,66.614 17.023,67.107 16.319,67.522C17.116,67.925 17.749,68.398 18.22,68.944C18.692,69.489 18.927,70.19 18.927,71.046C18.927,71.63 18.798,72.159 18.539,72.633C18.28,73.107 17.932,73.512 17.494,73.85C17.056,74.187 16.542,74.45 15.951,74.638C15.531,74.772 15.093,74.858 14.636,74.897C12.867,73.325 11.229,71.608 9.741,69.764ZM75.531,74.648L81.264,63.317L74.774,63.317L74.774,61.02L83.851,61.02L83.851,62.928L78.059,74.648L75.531,74.648ZM28.761,67.814C28.761,67.607 28.757,67.409 28.751,67.221C28.744,67.032 28.734,66.847 28.721,66.666L23.844,71.007C24.255,72.188 25.005,72.779 26.093,72.779C26.943,72.779 27.6,72.383 28.064,71.591C28.529,70.8 28.761,69.541 28.761,67.814ZM16.459,70.988C16.459,70.663 16.372,70.384 16.2,70.151C16.027,69.917 15.812,69.709 15.553,69.528C15.294,69.346 15.009,69.18 14.697,69.031C14.385,68.882 14.083,68.729 13.791,68.574C13.128,68.859 12.617,69.226 12.258,69.674C11.9,70.121 11.721,70.547 11.721,70.949C11.721,71.533 11.933,71.984 12.358,72.302C12.783,72.62 13.373,72.779 14.13,72.779C14.806,72.779 15.364,72.626 15.802,72.321C16.24,72.016 16.459,71.572 16.459,70.988ZM23.426,67.814C23.426,68.009 23.429,68.194 23.436,68.369C23.442,68.544 23.452,68.723 23.466,68.905L28.323,64.563C27.925,63.447 27.175,62.889 26.073,62.889C25.224,62.889 24.57,63.288 24.113,64.086C23.655,64.884 23.426,66.127 23.426,67.814ZM38.45,65.147C38.45,65.511 38.52,65.832 38.659,66.111C38.799,66.39 38.981,66.624 39.207,66.812C39.432,67 39.694,67.143 39.993,67.24C40.292,67.337 40.6,67.386 40.919,67.386C41.463,67.386 41.934,67.302 42.332,67.133C42.73,66.964 43.022,66.757 43.208,66.51C43.248,66.237 43.267,65.978 43.267,65.731C43.267,65.368 43.214,65.011 43.108,64.66C43.002,64.31 42.843,63.998 42.63,63.726C42.418,63.453 42.153,63.236 41.834,63.074C41.516,62.911 41.151,62.83 40.739,62.83C40.089,62.83 39.545,63.035 39.107,63.444C38.669,63.852 38.45,64.42 38.45,65.147ZM12.179,64.466C12.179,64.777 12.249,65.04 12.388,65.254C12.527,65.468 12.706,65.657 12.925,65.819C13.144,65.981 13.393,66.127 13.672,66.257C13.951,66.387 14.229,66.516 14.508,66.646C14.72,66.542 14.929,66.413 15.135,66.257C15.341,66.101 15.523,65.929 15.682,65.741C15.842,65.553 15.971,65.358 16.071,65.157C16.17,64.956 16.22,64.751 16.22,64.544C16.22,64.271 16.16,64.034 16.041,63.833C15.921,63.632 15.765,63.46 15.573,63.317C15.38,63.174 15.165,63.067 14.926,62.996C14.687,62.924 14.442,62.889 14.189,62.889C13.897,62.889 13.629,62.934 13.383,63.025C13.138,63.116 12.925,63.233 12.746,63.375C12.567,63.518 12.428,63.687 12.328,63.882C12.229,64.076 12.179,64.271 12.179,64.466ZM47.567,48.345C47.567,47.164 47.693,46.129 47.945,45.24C48.198,44.351 48.553,43.614 49.01,43.03C49.468,42.446 50.016,42.008 50.653,41.716C51.29,41.424 52,41.278 52.783,41.278C54.455,41.278 55.742,41.852 56.644,43.001C57.547,44.15 57.998,45.931 57.998,48.345C57.998,49.539 57.872,50.581 57.62,51.47C57.368,52.359 57.013,53.099 56.555,53.69C56.097,54.28 55.546,54.721 54.903,55.013C54.259,55.305 53.546,55.451 52.763,55.451C51.077,55.451 49.79,54.845 48.901,53.631C48.012,52.418 47.567,50.656 47.567,48.345ZM35.623,48.345C35.623,47.164 35.75,46.129 36.002,45.24C36.254,44.351 36.609,43.614 37.067,43.03C37.525,42.446 38.072,42.008 38.709,41.716C39.346,41.424 40.056,41.278 40.839,41.278C42.511,41.278 43.798,41.852 44.701,43.001C45.603,44.15 46.054,45.931 46.054,48.345C46.054,49.539 45.928,50.581 45.676,51.47C45.424,52.359 45.069,53.099 44.611,53.69C44.153,54.28 43.603,54.721 42.959,55.013C42.315,55.305 41.602,55.451 40.819,55.451C39.134,55.451 37.846,54.845 36.957,53.631C36.068,52.418 35.623,50.656 35.623,48.345ZM12.895,53.213C13.333,53.213 13.738,53.161 14.11,53.057C14.481,52.953 14.803,52.804 15.075,52.609C15.347,52.414 15.56,52.174 15.712,51.889C15.865,51.603 15.941,51.279 15.941,50.915C15.941,50.201 15.652,49.64 15.075,49.231C14.498,48.822 13.632,48.618 12.477,48.618C12.331,48.618 12.162,48.621 11.97,48.628C11.777,48.634 11.595,48.644 11.422,48.657C11.223,48.67 11.018,48.676 10.805,48.676L10.805,41.551L18.011,41.551L18.011,43.887L13.035,43.887L13.035,46.554C13.141,46.554 13.247,46.548 13.353,46.535L13.851,46.515C14.515,46.515 15.132,46.609 15.702,46.797C16.273,46.986 16.771,47.268 17.195,47.644C17.62,48.021 17.948,48.478 18.181,49.017C18.413,49.556 18.529,50.149 18.529,50.798C18.529,51.564 18.383,52.236 18.091,52.813C17.799,53.391 17.401,53.874 16.897,54.264C16.392,54.653 15.808,54.949 15.145,55.15C14.481,55.351 13.771,55.451 13.015,55.451C12.723,55.451 12.411,55.422 12.079,55.364C11.748,55.305 11.422,55.234 11.104,55.15C10.785,55.065 10.49,54.971 10.218,54.867C9.946,54.764 9.717,54.666 9.531,54.575L10.367,52.551C10.593,52.68 10.941,52.823 11.412,52.979C11.884,53.135 12.378,53.213 12.895,53.213ZM62.552,41.551C62.671,41.538 62.88,41.518 63.179,41.492C63.477,41.466 63.816,41.443 64.194,41.424C64.572,41.405 64.964,41.388 65.368,41.375C65.773,41.362 66.135,41.356 66.453,41.356C67.688,41.356 68.709,41.531 69.519,41.882C70.328,42.232 70.969,42.715 71.44,43.332C71.911,43.948 72.239,44.675 72.425,45.513C72.611,46.35 72.704,47.261 72.704,48.248C72.704,49.144 72.611,50.02 72.425,50.876C72.239,51.733 71.904,52.495 71.42,53.164C70.936,53.832 70.265,54.371 69.409,54.78C68.553,55.189 67.455,55.393 66.115,55.393C65.903,55.393 65.631,55.387 65.299,55.374C64.967,55.361 64.629,55.344 64.284,55.325C63.939,55.305 63.607,55.286 63.288,55.267C62.97,55.247 62.724,55.224 62.552,55.198L62.552,41.551ZM30.532,55.179L21.654,55.179L21.654,53.29C21.813,53.161 22.013,52.989 22.251,52.774C22.49,52.56 22.759,52.317 23.058,52.044C23.356,51.772 23.671,51.473 24.003,51.149C24.335,50.824 24.66,50.487 24.979,50.136C25.43,49.643 25.825,49.195 26.163,48.793C26.501,48.391 26.78,48.011 26.999,47.654C27.218,47.297 27.381,46.947 27.487,46.603C27.593,46.259 27.646,45.905 27.646,45.542C27.646,45.282 27.586,45.029 27.467,44.782C27.347,44.536 27.182,44.318 26.969,44.13C26.757,43.942 26.501,43.793 26.203,43.682C25.904,43.572 25.576,43.517 25.217,43.517C24.74,43.517 24.305,43.588 23.914,43.731C23.522,43.874 23.114,44.114 22.689,44.451L21.654,42.66C22.212,42.271 22.832,41.943 23.515,41.677C24.199,41.411 24.985,41.278 25.874,41.278C26.445,41.278 26.992,41.356 27.517,41.512C28.041,41.667 28.505,41.898 28.91,42.203C29.315,42.508 29.637,42.887 29.875,43.342C30.114,43.796 30.234,44.322 30.234,44.919C30.234,45.334 30.197,45.72 30.124,46.077C30.051,46.434 29.939,46.791 29.786,47.148C29.633,47.505 29.434,47.872 29.189,48.248C28.943,48.624 28.648,49.033 28.303,49.474C28.037,49.812 27.749,50.153 27.437,50.497C27.125,50.841 26.817,51.168 26.511,51.48C26.206,51.791 25.904,52.083 25.606,52.356C25.307,52.628 25.038,52.856 24.799,53.037L30.532,53.037L30.532,55.179ZM75.61,53.037L78.656,53.037L78.656,44.529L76.028,46.496L74.834,44.938L79.373,41.551L81.124,41.551L81.124,53.037L84.11,53.037L84.11,55.179L75.61,55.179L75.61,53.037ZM55.45,48.345C55.45,48.138 55.447,47.94 55.44,47.751C55.434,47.563 55.424,47.378 55.41,47.197L50.533,51.538C50.945,52.719 51.694,53.31 52.783,53.31C53.632,53.31 54.289,52.914 54.753,52.122C55.218,51.331 55.45,50.072 55.45,48.345ZM43.506,48.345C43.506,48.138 43.503,47.94 43.496,47.751C43.49,47.563 43.48,47.378 43.467,47.197L38.59,51.538C39.001,52.719 39.751,53.31 40.839,53.31C41.688,53.31 42.345,52.914 42.81,52.122C43.274,51.331 43.506,50.072 43.506,48.345ZM66.553,43.731C66.301,43.731 66.055,43.741 65.816,43.76C65.577,43.78 65.398,43.796 65.279,43.809L65.279,52.94C65.332,52.953 65.412,52.963 65.518,52.969L66.175,53.008C66.281,53.015 66.367,53.018 66.433,53.018C67.203,53.018 67.817,52.878 68.275,52.599C68.733,52.32 69.074,51.954 69.3,51.499C69.526,51.045 69.672,50.532 69.738,49.961C69.804,49.39 69.837,48.819 69.837,48.248C69.837,47.755 69.808,47.242 69.748,46.71C69.688,46.178 69.549,45.691 69.33,45.25C69.111,44.808 68.782,44.445 68.344,44.159C67.907,43.874 67.309,43.731 66.553,43.731ZM50.115,48.345C50.115,48.54 50.119,48.725 50.125,48.9C50.132,49.075 50.142,49.254 50.155,49.436L55.012,45.094C54.614,43.978 53.864,43.42 52.763,43.42C51.913,43.42 51.26,43.819 50.802,44.617C50.344,45.415 50.115,46.658 50.115,48.345ZM38.171,48.345C38.171,48.54 38.175,48.725 38.181,48.9C38.188,49.075 38.198,49.254 38.211,49.436L43.068,45.094C42.67,43.978 41.921,43.42 40.819,43.42C39.97,43.42 39.316,43.819 38.858,44.617C38.4,45.415 38.171,46.658 38.171,48.345ZM57.68,31.485C57.68,32.121 57.557,32.712 57.311,33.257C57.066,33.802 56.731,34.276 56.306,34.678C55.881,35.08 55.374,35.398 54.783,35.632C54.193,35.866 53.559,35.982 52.882,35.982C52.192,35.982 51.545,35.875 50.941,35.661C50.338,35.447 49.81,35.126 49.359,34.697C48.908,34.269 48.549,33.73 48.284,33.081C48.018,32.433 47.886,31.68 47.886,30.823C47.886,29.538 48.115,28.37 48.573,27.319C49.03,26.267 49.618,25.355 50.334,24.583C51.051,23.811 51.854,23.188 52.743,22.714C53.632,22.24 54.515,21.939 55.39,21.809L55.968,23.814C55.264,23.944 54.607,24.155 53.997,24.447C53.387,24.739 52.842,25.093 52.365,25.508C51.887,25.923 51.485,26.384 51.16,26.89C50.835,27.396 50.613,27.922 50.493,28.467C50.759,28.143 51.157,27.867 51.688,27.64C52.219,27.413 52.803,27.299 53.44,27.299C54.037,27.299 54.594,27.393 55.112,27.581C55.629,27.77 56.077,28.042 56.455,28.399C56.834,28.756 57.132,29.194 57.351,29.713C57.57,30.232 57.68,30.823 57.68,31.485ZM30.731,25.255C30.731,25.592 30.688,25.93 30.602,26.267C30.516,26.605 30.373,26.913 30.174,27.192C29.975,27.471 29.716,27.718 29.398,27.932C29.079,28.146 28.694,28.305 28.243,28.409L28.243,28.526C28.641,28.591 29.02,28.701 29.378,28.857C29.736,29.012 30.048,29.227 30.313,29.499C30.579,29.772 30.788,30.103 30.94,30.492C31.093,30.881 31.169,31.342 31.169,31.874C31.169,32.575 31.017,33.182 30.712,33.695C30.406,34.207 29.998,34.626 29.487,34.951C28.976,35.275 28.396,35.515 27.746,35.671C27.095,35.827 26.425,35.905 25.735,35.905L24.869,35.905C24.517,35.905 24.139,35.895 23.734,35.875C23.33,35.856 22.918,35.827 22.5,35.788C22.082,35.749 21.701,35.69 21.356,35.612L21.356,22.179C21.608,22.14 21.896,22.101 22.222,22.062C22.547,22.023 22.895,21.991 23.267,21.965C23.638,21.939 24.02,21.919 24.411,21.906C24.803,21.893 25.191,21.887 25.576,21.887C26.226,21.887 26.86,21.935 27.477,22.033C28.094,22.13 28.645,22.302 29.129,22.549C29.613,22.795 30.002,23.139 30.294,23.581C30.585,24.022 30.731,24.58 30.731,25.255ZM84.986,31.913L82.597,31.913L82.597,35.71L80.189,35.71L80.189,31.913L74.157,31.913L74.157,30.181L80.467,21.984L82.597,21.984L82.597,29.889L84.986,29.889L84.986,31.913ZM69.519,32.692L65.359,32.692L64.403,35.71L61.676,35.71L66.175,22.081L68.902,22.081L73.381,35.71L70.514,35.71L69.519,32.692ZM9.571,22.081L18.708,22.081L18.708,24.457L12.298,24.457L12.298,27.63L18.21,27.63L18.21,30.005L12.298,30.005L12.298,33.335L18.808,33.335L18.808,35.71L9.571,35.71L9.571,22.081ZM36.539,22.081L45.378,22.081L45.378,24.457L39.266,24.457L39.266,27.825L44.94,27.825L44.94,30.2L39.266,30.2L39.266,35.71L36.539,35.71L36.539,22.081ZM55.171,31.582C55.171,30.881 54.956,30.349 54.524,29.986C54.093,29.622 53.513,29.441 52.783,29.441C52.252,29.441 51.774,29.558 51.349,29.791C50.925,30.025 50.613,30.297 50.414,30.609C50.387,30.752 50.371,30.911 50.364,31.086C50.357,31.261 50.354,31.401 50.354,31.504C50.354,31.816 50.407,32.115 50.513,32.4C50.62,32.686 50.775,32.935 50.981,33.15C51.187,33.364 51.436,33.533 51.728,33.656C52.02,33.779 52.358,33.841 52.743,33.841C53.048,33.841 53.347,33.786 53.639,33.675C53.931,33.565 54.189,33.412 54.415,33.218C54.641,33.023 54.823,32.786 54.962,32.507C55.102,32.228 55.171,31.92 55.171,31.582ZM25.755,33.704C26.087,33.704 26.408,33.666 26.72,33.588C27.032,33.51 27.308,33.39 27.546,33.227C27.785,33.065 27.978,32.861 28.124,32.614C28.27,32.368 28.343,32.076 28.343,31.738C28.343,31.31 28.256,30.972 28.084,30.726C27.911,30.479 27.686,30.288 27.407,30.151C27.128,30.015 26.817,29.927 26.472,29.889C26.126,29.85 25.781,29.83 25.436,29.83L23.983,29.83L23.983,33.588C24.05,33.614 24.156,33.633 24.302,33.646C24.448,33.659 24.604,33.669 24.77,33.675C24.935,33.682 25.108,33.688 25.287,33.695C25.466,33.701 25.622,33.704 25.755,33.704ZM65.996,30.55L68.981,30.55L67.568,25.995L67.389,25.995L65.996,30.55ZM80.189,25.566L76.725,29.889L80.189,29.889L80.189,25.566ZM24.859,27.805C25.045,27.805 25.261,27.799 25.506,27.786C25.752,27.773 25.954,27.753 26.113,27.727C26.618,27.572 27.052,27.338 27.417,27.027C27.782,26.715 27.964,26.306 27.964,25.8C27.964,25.463 27.898,25.184 27.765,24.963C27.633,24.742 27.457,24.567 27.238,24.437C27.019,24.307 26.77,24.217 26.491,24.165C26.213,24.113 25.921,24.087 25.616,24.087C25.271,24.087 24.952,24.093 24.66,24.106C24.368,24.119 24.142,24.139 23.983,24.165L23.983,27.805L24.859,27.805Z" style="fill:rgb(160,162,164);fill-opacity:0.75;fill-rule:nonzero;"/>
        </g>
    </g>
    <defs>
        <linearGradient id="_Linear1" x1="0" y1="0" x2="1" y2="0" gradientUnits="userSpaceOnUse" gradientTransform="matrix(72.3941,-72.3941,72.3941,72.3941,12.7851,73.1519)"><stop offset="0" style="stop-color:rgb(245,231,184);stop-opacity:1"/><stop offset="1" style="stop-color:rgb(230,214,149);stop-opacity:1"/><stop offset="1" style="stop-color:rgb(230,214,149);stop-opacity:1"/></linearGradient>
        <linearGradient id="_Linear2" x1="0" y1="0" x2="1" y2="0" gradientUnits="userSpaceOnUse" gradientTransform="matrix(85.303,0,-0,85.303,0.3,7.526)"><stop offset="0" style="stop-color:rgb(255,71,71);stop-opacity:1"/><stop offset="1" style="stop-color:rgb(240,147,100);stop-opacity:1"/></linearGradient>
    </defs>
</svg>
